# xmcd
#
# Track frame offsets:
#       150
#       10640
#       24015
#       37127
#       46500
#       58945
#       71037
#       82890
#       92652
#       103107
#       123567
#
# Disc length: 1832 seconds
#
# Revision: 3
# Processed by: cddbd v1.5.2PL0 Copyright (c) Steve Scherf et al.
# Submitted via: FreeDbEdit v0.1
#
DISCID=8207260b
DTITLE=The O'Jays - The O'Jays in Philadelphia
DYEAR=1900
DGENRE=
TTITLE0=One Night Affair
TTITLE1=You're the Best Thing Since Candy
TTITLE2=Branded Bad
TTITLE3=I Should Be Your Lover
TTITLE4=Looky Looky (Look at Me Girl)
TTITLE5=Deeper in Love With You
TTITLE6=Let Me in Your World
TTITLE7=Just Can't Get Enough
TTITLE8=I've Got the Groove
TTITLE9=Medley: Little Green Apples -- Something
TTITLE10=It's Too Strong
EXTD=
EXTT0=
EXTT1=
EXTT2=
EXTT3=
EXTT4=
EXTT5=
EXTT6=
EXTT7=
EXTT8=
EXTT9=
EXTT10=
PLAYORDER=
